<?xml version="1.0" encoding="UTF-8"?>
<!DOCTYPE svg PUBLIC "-//W3C//DTD SVG 1.1//EN" "http://www.w3.org/Graphics/SVG/1.1/DTD/svg11.dtd">
<svg xmlns="http://www.w3.org/2000/svg" version="1.1" width="64px" height="64px" style="shape-rendering:geometricPrecision; text-rendering:geometricPrecision; image-rendering:optimizeQuality; fill-rule:evenodd; clip-rule:evenodd" xmlns:xlink="http://www.w3.org/1999/xlink">
<g><path style="opacity:0.922" fill="#fffba1" d="M 52.5,-0.5 C 55.5,-0.5 58.5,-0.5 61.5,-0.5C 61.8333,0.5 62.5,1.16667 63.5,1.5C 63.5,4.5 63.5,7.5 63.5,10.5C 62.2638,12.649 61.2638,14.9823 60.5,17.5C 57.5786,18.696 54.5786,19.696 51.5,20.5C 52.1667,19.5 52.8333,18.5 53.5,17.5C 57.7871,14.2771 58.4537,10.4438 55.5,6C 53.5,5.33333 51.5,5.33333 49.5,6C 43.6631,9.41752 37.9964,13.0842 32.5,17C 29.2232,19.7663 26.5566,22.933 24.5,26.5C 23.5,28.1667 22.1667,29.5 20.5,30.5C 19.7893,28.1582 18.456,27.8249 16.5,29.5C 15.8333,29.5 15.1667,29.5 14.5,29.5C 25.1775,16.8048 37.8442,6.80481 52.5,-0.5 Z"/></g>
<g><path style="opacity:0.517" fill="#ff973d" d="M 4.5,4.5 C 7.95707,4.66721 8.2904,5.66721 5.5,7.5C 4.61432,6.67504 4.28099,5.67504 4.5,4.5 Z"/></g>
<g><path style="opacity:0.808" fill="#ffd05f" d="M 18.5,4.5 C 20.4646,4.94835 20.7979,5.94835 19.5,7.5C 18.6143,6.67504 18.281,5.67504 18.5,4.5 Z"/></g>
<g><path style="opacity:0.673" fill="#ffde50" d="M 28.5,8.5 C 30.4646,8.94835 30.7979,9.94835 29.5,11.5C 28.6143,10.675 28.281,9.67504 28.5,8.5 Z"/></g>
<g><path style="opacity:0.842" fill="#ffd560" d="M 53.5,17.5 C 53.5481,14.6872 54.2147,12.0205 55.5,9.5C 55.1667,8.5 54.5,7.83333 53.5,7.5C 50.0482,8.7257 46.7148,10.2257 43.5,12C 37.2717,17.0734 30.9383,21.9067 24.5,26.5C 26.5566,22.933 29.2232,19.7663 32.5,17C 37.9964,13.0842 43.6631,9.41752 49.5,6C 51.5,5.33333 53.5,5.33333 55.5,6C 58.4537,10.4438 57.7871,14.2771 53.5,17.5 Z"/></g>
<g><path style="opacity:0.723" fill="#ffa743" d="M 8.5,14.5 C 10.1667,14.5 11.8333,14.5 13.5,14.5C 13.5,16.1667 13.5,17.8333 13.5,19.5C 11.8333,19.5 10.1667,19.5 8.5,19.5C 8.5,17.8333 8.5,16.1667 8.5,14.5 Z"/></g>
<g><path style="opacity:0.655" fill="#ff8544" d="M 18.5,14.5 C 20.4646,14.9483 20.7979,15.9483 19.5,17.5C 18.6143,16.675 18.281,15.675 18.5,14.5 Z"/></g>
<g><path style="opacity:0.992" fill="#ffd15c" d="M 51.5,20.5 C 52.751,29.1695 50.751,36.8361 45.5,43.5C 44.6554,42.3285 43.9887,40.9952 43.5,39.5C 43.6162,36.0897 41.9496,34.7564 38.5,35.5C 37.3915,34.71 36.0581,34.21 34.5,34C 33.9781,33.4387 33.6448,32.772 33.5,32C 34.8288,29.4911 36.8288,27.6578 39.5,26.5C 40.3236,23.2152 40.8236,19.8818 41,16.5C 42.0495,15.4829 43.2161,15.3162 44.5,16C 46.7167,17.7235 49.05,19.2235 51.5,20.5 Z"/></g>
<g><path style="opacity:0.906" fill="#ffb850" d="M 60.5,17.5 C 60.9564,20.8689 60.2897,24.2022 58.5,27.5C 59.836,30.1537 61.5026,32.487 63.5,34.5C 63.5,35.5 63.5,36.5 63.5,37.5C 59.8705,38.1002 56.2039,38.7668 52.5,39.5C 51.3422,42.1712 49.5089,44.1712 47,45.5C 45.9701,45.1639 45.4701,44.4972 45.5,43.5C 50.751,36.8361 52.751,29.1695 51.5,20.5C 54.5786,19.696 57.5786,18.696 60.5,17.5 Z"/></g>
<g><path style="opacity:0.993" fill="#ffe566" d="M 14.5,29.5 C 15.1667,29.5 15.8333,29.5 16.5,29.5C 15.827,34.8524 14.1603,39.8524 11.5,44.5C 11.1667,44.5 10.8333,44.5 10.5,44.5C 10.6602,42.8008 10.4935,41.1341 10,39.5C 9.32924,38.7476 8.4959,38.4142 7.5,38.5C 6.5,38.5 5.5,38.5 4.5,38.5C 4.24395,36.0876 5.24395,34.4209 7.5,33.5C 8.47423,31.2573 8.80756,28.924 8.5,26.5C 10.9468,26.615 12.9468,27.615 14.5,29.5 Z"/></g>
<g><path style="opacity:0.896" fill="#ffd45f" d="M 20.5,30.5 C 20.3225,31.6948 19.9891,32.8615 19.5,34C 21.2009,35.8603 22.2009,38.027 22.5,40.5C 20.076,40.1924 17.7427,40.5258 15.5,41.5C 14.7174,43.2882 13.3841,44.2882 11.5,44.5C 14.1603,39.8524 15.827,34.8524 16.5,29.5C 18.456,27.8249 19.7893,28.1582 20.5,30.5 Z"/></g>
<g><path style="opacity:0.923" fill="#fffba1" d="M 38.5,35.5 C 41.9496,34.7564 43.6162,36.0897 43.5,39.5C 33.6672,49.2358 22.6672,57.2358 10.5,63.5C 7.5,63.5 4.5,63.5 1.5,63.5C 1.16667,62.5 0.5,61.8333 -0.5,61.5C -0.5,58.5 -0.5,55.5 -0.5,52.5C 1.69839,47.6181 4.36506,42.9514 7.5,38.5C 8.4959,38.4142 9.32924,38.7476 10,39.5C 10.4935,41.1341 10.6602,42.8008 10.5,44.5C 9.66175,44.8417 9.32842,45.5084 9.5,46.5C 7.5891,46.5743 6.42244,47.5743 6,49.5C 4.93762,57.3942 8.10429,59.5608 15.5,56C 20.672,52.9148 25.672,49.5814 30.5,46C 33.7768,43.2337 36.4434,40.067 38.5,36.5C 38.5,36.1667 38.5,35.8333 38.5,35.5 Z"/></g>
<g><path style="opacity:0.723" fill="#ffa743" d="M 55.5,44.5 C 57.1667,44.5 58.8333,44.5 60.5,44.5C 60.5,46.1667 60.5,47.8333 60.5,49.5C 58.8333,49.5 57.1667,49.5 55.5,49.5C 55.5,47.8333 55.5,46.1667 55.5,44.5 Z"/></g>
<g><path style="opacity:0.645" fill="#ffd762" d="M 50.5,47.5 C 52.6246,48.3676 52.7913,49.3676 51,50.5C 49.3167,49.8235 49.1501,48.8235 50.5,47.5 Z"/></g>
<g><path style="opacity:0.843" fill="#ffd560" d="M 38.5,36.5 C 36.4434,40.067 33.7768,43.2337 30.5,46C 25.672,49.5814 20.672,52.9148 15.5,56C 8.10429,59.5608 4.93762,57.3942 6,49.5C 6.42244,47.5743 7.5891,46.5743 9.5,46.5C 9.24372,48.9372 8.57706,51.2706 7.5,53.5C 7.83333,54.5 8.5,55.1667 9.5,55.5C 12.9518,54.2743 16.2852,52.7743 19.5,51C 25.7283,45.9266 32.0617,41.0933 38.5,36.5 Z"/></g>
<g><path style="opacity:0.714" fill="#ff8643" d="M 38.5,51.5 C 40.1123,52.4523 41.6123,52.7856 43,52.5C 43.7737,54.403 43.4404,56.0696 42,57.5C 41.2588,56.3595 40.4255,56.3595 39.5,57.5C 38.5344,55.604 38.2011,53.604 38.5,51.5 Z"/></g>
<g><path style="opacity:0.579" fill="#ffd45b" d="M 32.5,55.5 C 34.4646,55.9483 34.7979,56.9483 33.5,58.5C 31.4807,57.8671 31.1474,56.8671 32.5,55.5 Z"/></g>
<g><path style="opacity:1" fill="#ffd25d" d="M 55.5,54.5 C 58.5476,54.494 59.0476,55.494 57,57.5C 55.9614,56.7562 55.4614,55.7562 55.5,54.5 Z"/></g>
</svg>
